<?xml version="1.0" standalone="no"?>
<!DOCTYPE svg PUBLIC "-//W3C//DTD SVG 20010904//EN"
 "http://www.w3.org/TR/2001/REC-SVG-20010904/DTD/svg10.dtd">
<svg version="1.0" xmlns="http://www.w3.org/2000/svg"
 width="500.000000pt" height="500.000000pt" viewBox="0 0 500.000000 500.000000"
 preserveAspectRatio="xMidYMid meet">

<g transform="translate(0.000000,500.000000) scale(0.100000,-0.100000)"
fill="#000000" stroke="none">
<path d="M1118 4729 c-145 -21 -302 -83 -429 -170 -82 -55 -193 -166 -248
-248 -63 -92 -127 -233 -153 -337 l-23 -89 0 -1375 0 -1375 23 -89 c44 -174
142 -347 267 -471 124 -125 297 -223 471 -267 l89 -23 1375 0 1375 0 89 23
c317 80 569 300 693 602 72 175 68 81 68 1600 0 1293 -1 1369 -19 1445 -85
370 -366 658 -736 757 l-85 22 -1350 2 c-742 1 -1376 -2 -1407 -7z m1684 -496
c178 -102 406 -234 508 -293 787 -453 818 -472 824 -493 9 -32 7 -1870 -2
-1884 -6 -9 -557 -331 -1427 -831 -110 -63 -206 -119 -212 -124 -12 -10 -147
67 -1348 760 -137 79 -267 155 -288 168 l-37 24 0 953 0 953 327 189 c181 104
531 306 778 448 248 143 470 272 495 288 25 15 48 28 52 28 4 1 153 -83 330
-186z"/>
<path d="M1845 3607 l-630 -363 0 -735 0 -734 245 -141 c254 -146 974 -561
1000 -576 11 -7 172 81 605 331 325 187 609 351 633 365 l42 26 -2 732 -3 732
-345 198 c-190 110 -471 272 -625 361 -153 89 -282 163 -285 165 -3 1 -289
-161 -635 -361z m684 -264 c34 -18 67 -44 86 -70 23 -32 37 -42 60 -43 36 -1
95 -21 131 -45 15 -10 48 -18 78 -18 203 -6 228 -291 30 -337 -21 -5 -117 -10
-211 -10 l-173 0 0 -45 0 -45 124 0 c95 0 126 -3 135 -14 8 -9 11 -45 10 -98
l-2 -83 84 -5 84 -5 0 -440 0 -440 -220 0 -220 0 -3 33 -3 32 -76 0 c-66 0
-79 -3 -105 -25 -36 -31 -65 -32 -95 -3 -32 30 -31 82 2 104 14 9 25 25 25 35
0 17 -9 19 -99 19 -77 0 -100 3 -104 14 -3 8 -6 152 -7 319 0 256 2 306 14
316 9 8 39 11 78 10 l63 -3 5 115 5 114 133 3 132 3 0 43 0 44 -207 4 c-226 3
-240 7 -295 65 -81 85 -74 211 15 290 35 31 90 53 132 53 12 0 28 12 38 30 23
38 73 76 134 101 66 27 148 20 222 -18z"/>
<path d="M2310 3319 c-53 -24 -84 -51 -116 -101 -21 -33 -28 -37 -53 -32 -40
8 -113 -26 -142 -67 -34 -48 -34 -140 -1 -187 49 -67 43 -67 490 -70 381 -3
405 -2 446 17 100 44 107 173 13 232 -25 16 -43 19 -84 15 -45 -4 -54 -1 -74
20 -28 30 -88 47 -133 38 -29 -5 -35 -3 -41 16 -12 38 -68 92 -120 116 -62 29
-125 30 -185 3z m128 -81 c25 -11 52 -34 61 -49 12 -22 23 -29 47 -29 16 0 39
-6 49 -14 14 -10 35 -12 71 -9 46 5 54 3 86 -26 27 -24 45 -31 76 -31 31 0 45
-6 60 -25 11 -14 23 -25 28 -25 38 0 59 -85 28 -111 -22 -18 -757 -27 -815
-10 -131 39 -113 223 24 238 40 5 49 10 66 39 41 69 137 92 219 52z"/>
<path d="M2262 2594 l3 -97 105 2 c120 2 139 -2 141 -33 1 -11 5 -3 8 19 l6
40 118 3 117 3 0 79 0 80 -250 0 -251 0 3 -96z"/>
<path d="M2560 2085 l0 -405 185 0 185 0 0 405 0 405 -185 0 -185 0 0 -405z
m358 259 c5 -51 -9 -55 -178 -52 -167 3 -180 8 -166 62 l7 26 167 -2 167 -3 3
-31z m-3 -124 l0 -35 -170 0 -170 0 -3 23 c-8 52 -5 53 175 50 l168 -3 0 -35z
m-131 -411 c48 -38 24 -109 -37 -109 -65 0 -91 70 -41 109 15 12 32 21 39 21
7 0 24 -9 39 -21z"/>
<path d="M2724 1776 c-8 -21 13 -46 32 -39 20 8 13 47 -9 51 -9 2 -20 -4 -23
-12z"/>
<path d="M2107 2454 c-4 -4 -7 -135 -7 -291 l0 -283 185 0 185 0 -2 288 -3
287 -176 3 c-96 1 -178 -1 -182 -4z m348 -119 l0 -40 -159 -3 c-173 -3 -190 2
-180 47 4 14 9 29 11 34 3 4 77 6 166 5 l162 -3 0 -40z m0 -125 l0 -35 -167
-3 c-109 -2 -168 1 -169 8 -1 5 -1 19 -1 30 0 11 0 25 1 30 1 7 60 10 169 8
l167 -3 0 -35z m-125 -190 c20 -20 26 -56 12 -76 -9 -13 -46 -34 -62 -34 -17
0 -60 47 -60 65 0 23 45 65 70 65 11 0 29 -9 40 -20z"/>
<path d="M2267 1986 c-8 -20 20 -43 35 -28 14 14 3 42 -16 42 -7 0 -16 -6 -19
-14z"/>
<path d="M2508 2123 l-3 -278 -97 -3 c-110 -3 -119 -11 -71 -63 26 -27 33 -29
105 -29 l78 0 0 325 c0 179 -2 325 -5 325 -3 0 -6 -125 -7 -277z"/>
<path d="M2267 1754 c-10 -11 -9 -42 3 -49 20 -12 51 6 48 28 -3 22 -36 35
-51 21z"/>
</g>
</svg>
